<svg xmlns="http://www.w3.org/2000/svg" fill='#111827'  stroke="#111827" stroke-width="1.5" viewBox="0 0 72 72" id="soup-bowl"><path d="M58.7 31.9H6.3c-1.8 0-3.3 1.5-3.3 3.3v1c0 1.8 1.5 3.3 3.3 3.3h.3C7 48.6 12.1 56.9 20 61.2c-2.1.8-3.6 2.9-3.6 5.3v.5h-3.6c-.6 0-1 .4-1 1s.4 1 1 1H52c.6 0 1-.4 1-1s-.4-1-1-1h-3.6v-.5c0-2.4-1.5-4.4-3.6-5.3 7.9-4.3 13.1-12.6 13.4-21.7h.3c1.8 0 3.3-1.5 3.3-3.3v-1c.2-1.9-1.3-3.3-3.1-3.3zM46.5 66.5v.5h-28v-.5c0-2 1.6-3.6 3.6-3.6h20.8c2-.1 3.6 1.6 3.6 3.6zm-5.4-5.7H23.9C15.1 57.4 9 48.9 8.6 39.5h47.8C56 48.9 50 57.4 41.1 60.8zM60 36.2c0 .7-.6 1.3-1.3 1.3H6.3c-.7 0-1.3-.6-1.3-1.3v-1c0-.7.6-1.3 1.3-1.3h52.4c.7 0 1.3.6 1.3 1.3v1zm8.8-30.4c-.8-2.2-3.3-3.3-5.5-2.5L39.4 13c-2.1-2.4-5.3-2.3-8.3-1.3-4.8 1.7-10.9 6.6-9.5 10.6 1.4 3.9 9.2 4 14 2.3 4.4-1.5 5.6-4.1 5.7-6.2L66 11.1c2.3-.7 3.6-3.1 2.8-5.3zM34.9 22.7c-4.7 1.7-10.7 1.1-11.5-1.1-.8-2.2 3.6-6.4 8.3-8 3.3-1.2 6.1-.7 7.2 2.6 1.1 3-.2 5.2-4 6.5zM65.5 9.2l-24.3 7.2c-.1-.3-.2-.6-.2-.9-.1-.3-.2-.6-.3-.8l23.5-9.6c1.1-.5 2.4.1 2.8 1.3.3 1.2-.3 2.4-1.5 2.8z"></path></svg>